<?xml version="1.0" ?><svg enable-background="new 0 0 20 20" height="512" id="Layer_1" version="1.1" viewBox="0 0 512 512" width="512" xml:space="preserve" xmlns="http://www.w3.org/2000/svg" xmlns:cc="http://creativecommons.org/ns#" xmlns:dc="http://purl.org/dc/elements/1.1/" xmlns:inkscape="http://www.inkscape.org/namespaces/inkscape" xmlns:rdf="http://www.w3.org/1999/02/22-rdf-syntax-ns#" xmlns:sodipodi="http://sodipodi.sourceforge.net/DTD/sodipodi-0.dtd" xmlns:svg="http://www.w3.org/2000/svg"><defs id="defs71"/><ellipse cx="-143" cy="33.063999" d="m -133,33.063999 c 0,3.741177 -4.47715,6.774 -10,6.774 -5.52285,0 -10,-3.032823 -10,-6.774 0,-3.741177 4.47715,-6.774 10,-6.774 5.52285,0 10,3.032823 10,6.774 z" id="ellipse7" rx="10" ry="6.7740002" style="fill:#3476b2;fill-opacity:1" transform="matrix(8.5333333,0,0,8.5333333,1305.6,172.04907)"/><ellipse cx="-103" cy="33.063999" d="m -93,33.063999 c 0,3.741177 -4.477153,6.774 -10,6.774 -5.52285,0 -10,-3.032823 -10,-6.774 0,-3.741177 4.47715,-6.774 10,-6.774 5.522847,0 10,3.032823 10,6.774 z" id="ellipse9" rx="10" ry="6.7740002" style="fill:#3476b2;fill-opacity:1" transform="matrix(8.5333333,0,0,8.5333333,1305.6,172.04907)"/><ellipse cx="-123" cy="-13.065" d="m -113,-13.065 c 0,3.7411774 -4.47715,6.7740006 -10,6.7740006 -5.52285,0 -10,-3.0328232 -10,-6.7740006 0,-3.741177 4.47715,-6.774 10,-6.774 5.52285,0 10,3.032823 10,6.774 z" id="ellipse11" rx="10" ry="6.7740002" style="fill:#3476b2;fill-opacity:1" transform="matrix(8.5333333,0,0,8.5333333,1305.6,172.04907)"/><polygon id="polygon13" points="-111.594,15.43 -123,8.226 -134.404,15.43 -123,22.097 " style="fill:#cf593b;fill-opacity:1" transform="matrix(8.5333333,0,0,8.5333333,1305.6,172.04907)"/><polygon id="polygon15" points="-117.731,1.237 -120.634,1.237 -120.634,-4.785 -125.365,-4.785 -125.365,1.237 -128.268,1.237 -123,6.506 " style="fill:#55ac89;fill-opacity:1" transform="matrix(8.5333333,0,0,8.5333333,1305.6,172.04907)"/><polygon id="polygon17" points="-147.697,20.351 -142.429,25.619 -137.16,20.351 -140.063,20.351 -140.063,14.329 -134.734,14.329 -134.734,9.597 -144.795,9.597 -144.795,14.329 -144.794,14.329 -144.794,20.351 " style="fill:#55ac89;fill-opacity:1" transform="matrix(8.5333333,0,0,8.5333333,1305.6,172.04907)"/><polygon id="polygon19" points="-105.936,20.351 -108.839,20.351 -103.571,25.619 -98.302,20.351 -101.205,20.351 -101.205,14.329 -101.205,14.329 -101.205,9.597 -111.266,9.597 -111.266,14.329 -105.936,14.329 " style="fill:#55ac89;fill-opacity:1" transform="matrix(8.5333333,0,0,8.5333333,1305.6,172.04907)"/></svg>