<?xml version="1.0" encoding="UTF-8" standalone="no"?>
<!DOCTYPE svg PUBLIC "-//W3C//DTD SVG 1.0//EN" "http://www.w3.org/TR/2001/PR-SVG-20010719/DTD/svg10.dtd">
<svg width="41cm" height="46cm" viewBox="678 139 802 902" xmlns="http://www.w3.org/2000/svg" xmlns:xlink="http://www.w3.org/1999/xlink">
  <g>
    <path style="fill: #ffffff" d="M 1060 140 L 1140,140 C 1151.05,140 1160,148.954 1160,160 C 1160,171.046 1151.05,180 1140,180 L 1060,180 C 1048.95,180 1040,171.046 1040,160 C 1040,148.954 1048.95,140 1060,140z"/>
    <path style="fill: none; fill-opacity:0; stroke-width: 2; stroke: #000000" d="M 1060 140 L 1140,140 C 1151.05,140 1160,148.954 1160,160 C 1160,171.046 1151.05,180 1140,180 L 1060,180 C 1048.95,180 1040,171.046 1040,160 C 1040,148.954 1048.95,140 1060,140"/>
    <text font-size="12.7998" style="fill: #000000;text-anchor:middle;font-family:sans-serif;font-style:normal;font-weight:normal" x="1100" y="164">
      <tspan x="1100" y="164">Начало</tspan>
    </text>
  </g>
  <g>
    <polygon style="fill: #ffffff" points="980.159,200 1236.78,200 1222.22,240 965.6,240 "/>
    <polygon style="fill: none; fill-opacity:0; stroke-width: 2; stroke: #000000" points="980.159,200 1236.78,200 1222.22,240 965.6,240 "/>
    <text font-size="12.7998" style="fill: #000000;text-anchor:middle;font-family:sans-serif;font-style:normal;font-weight:normal" x="1101.19" y="223.9">
      <tspan x="1101.19" y="223.9">inda, indb = индивиды - родители</tspan>
    </text>
  </g>
  <g>
    <rect style="fill: #ffffff" x="949.2" y="260" width="301.6" height="38"/>
    <rect style="fill: none; fill-opacity:0; stroke-width: 2; stroke: #000000" x="949.2" y="260" width="301.6" height="38"/>
    <text font-size="12.7998" style="fill: #000000;text-anchor:middle;font-family:sans-serif;font-style:normal;font-weight:normal" x="1100" y="282.9">
      <tspan x="1100" y="282.9">length = max длина программ inda и indb</tspan>
    </text>
  </g>
  <g>
    <rect style="fill: #ffffff" x="1073.72" y="320" width="52.55" height="38"/>
    <rect style="fill: none; fill-opacity:0; stroke-width: 2; stroke: #000000" x="1073.72" y="320" width="52.55" height="38"/>
    <text font-size="12.7998" style="fill: #000000;text-anchor:middle;font-family:sans-serif;font-style:normal;font-weight:normal" x="1100" y="342.9">
      <tspan x="1100" y="342.9">i = 0</tspan>
    </text>
  </g>
  <g>
    <polygon style="fill: #ffffff" points="1100.21,380 1187.7,423.744 1100.21,467.488 1012.72,423.744 "/>
    <polygon style="fill: none; fill-opacity:0; stroke-width: 2; stroke: #000000" points="1100.21,380 1187.7,423.744 1100.21,467.488 1012.72,423.744 "/>
    <text font-size="12.7998" style="fill: #000000;text-anchor:middle;font-family:sans-serif;font-style:normal;font-weight:normal" x="1100.21" y="427.644">
      <tspan x="1100.21" y="427.644">i = length/2+1</tspan>
    </text>
  </g>
  <text font-size="12.7998" style="fill: #000000;text-anchor:start;font-family:sans-serif;font-style:normal;font-weight:normal" x="1120" y="480">
    <tspan x="1120" y="480">нет</tspan>
  </text>
  <text font-size="12.7998" style="fill: #000000;text-anchor:start;font-family:sans-serif;font-style:normal;font-weight:normal" x="1200" y="400">
    <tspan x="1200" y="400">да</tspan>
  </text>
  <g>
    <rect style="fill: #ffffff" x="980" y="500" width="240" height="38"/>
    <rect style="fill: none; fill-opacity:0; stroke-width: 2; stroke: #000000" x="980" y="500" width="240" height="38"/>
    <text font-size="12.7998" style="fill: #000000;text-anchor:middle;font-family:sans-serif;font-style:normal;font-weight:normal" x="1100" y="522.9">
      <tspan x="1100" y="522.9">linea = случайная линия inda</tspan>
    </text>
  </g>
  <g>
    <rect style="fill: #ffffff" x="980" y="560" width="240" height="38"/>
    <rect style="fill: none; fill-opacity:0; stroke-width: 2; stroke: #000000" x="980" y="560" width="240" height="38"/>
    <text font-size="12.7998" style="fill: #000000;text-anchor:middle;font-family:sans-serif;font-style:normal;font-weight:normal" x="1100" y="582.9">
      <tspan x="1100" y="582.9">lineb = случайная линия indb</tspan>
    </text>
  </g>
  <g>
    <rect style="fill: #ffffff" x="949.4" y="620" width="301.2" height="38"/>
    <rect style="fill: none; fill-opacity:0; stroke-width: 2; stroke: #000000" x="949.4" y="620" width="301.2" height="38"/>
    <text font-size="12.7998" style="fill: #000000;text-anchor:middle;font-family:sans-serif;font-style:normal;font-weight:normal" x="1100" y="642.9">
      <tspan x="1100" y="642.9">chance = 1/(linea.children + lineb.children)</tspan>
    </text>
  </g>
  <g>
    <polygon style="fill: #ffffff" points="1100.21,683.787 1212.85,740.107 1100.21,796.426 987.575,740.107 "/>
    <polygon style="fill: none; fill-opacity:0; stroke-width: 2; stroke: #000000" points="1100.21,683.787 1212.85,740.107 1100.21,796.426 987.575,740.107 "/>
    <text font-size="12.7998" style="fill: #000000;text-anchor:middle;font-family:sans-serif;font-style:normal;font-weight:normal" x="1100.21" y="744.007">
      <tspan x="1100.21" y="744.007">uniform(0,1) &lt; chance</tspan>
    </text>
  </g>
  <text font-size="12.7998" style="fill: #000000;text-anchor:start;font-family:sans-serif;font-style:normal;font-weight:normal" x="940" y="720">
    <tspan x="940" y="720">нет</tspan>
  </text>
  <text font-size="12.7998" style="fill: #000000;text-anchor:start;font-family:sans-serif;font-style:normal;font-weight:normal" x="1240" y="720">
    <tspan x="1240" y="720">да</tspan>
  </text>
  <g>
    <rect style="fill: #ffffff" x="1220" y="780" width="240" height="38"/>
    <rect style="fill: none; fill-opacity:0; stroke-width: 2; stroke: #000000" x="1220" y="780" width="240" height="38"/>
    <text font-size="12.7998" style="fill: #000000;text-anchor:middle;font-family:sans-serif;font-style:normal;font-weight:normal" x="1340" y="802.9">
      <tspan x="1340" y="802.9">Поменять местами linea и lineb</tspan>
    </text>
  </g>
  <g>
    <rect style="fill: #ffffff" x="700" y="780" width="320" height="40"/>
    <rect style="fill: none; fill-opacity:0; stroke-width: 2; stroke: #000000" x="700" y="780" width="320" height="40"/>
    <line style="fill: none; fill-opacity:0; stroke-width: 2; stroke: #000000" x1="732" y1="780" x2="732" y2="820"/>
    <line style="fill: none; fill-opacity:0; stroke-width: 2; stroke: #000000" x1="988" y1="780" x2="988" y2="820"/>
    <text font-size="12.7998" style="fill: #000000;text-anchor:middle;font-family:sans-serif;font-style:normal;font-weight:normal" x="860" y="796">
      <tspan x="860" y="796">Поменять случайные поддеревья</tspan>
      <tspan x="860" y="812">linea и lineb</tspan>
    </text>
  </g>
  <polyline style="fill: none; fill-opacity:0; stroke-width: 2; stroke: #000000" points="987.575,740.107 987.575,759.738 860,759.738 860,780 "/>
  <polyline style="fill: none; fill-opacity:0; stroke-width: 2; stroke: #000000" points="1212.85,740.107 1212.85,759.143 1340,759.143 1340,780 "/>
  <g>
    <rect style="fill: #ffffff" x="1068.35" y="880" width="63.3" height="38"/>
    <rect style="fill: none; fill-opacity:0; stroke-width: 2; stroke: #000000" x="1068.35" y="880" width="63.3" height="38"/>
    <text font-size="12.7998" style="fill: #000000;text-anchor:middle;font-family:sans-serif;font-style:normal;font-weight:normal" x="1100" y="902.9">
      <tspan x="1100" y="902.9">i += 1</tspan>
    </text>
  </g>
  <polyline style="fill: none; fill-opacity:0; stroke-width: 2; stroke: #000000" points="1340,818 1340,840 1100,840 1100,880 "/>
  <polyline style="fill: none; fill-opacity:0; stroke-width: 2; stroke: #000000" points="860,820 860,840 1100,840 1100,880 "/>
  <polyline style="fill: none; fill-opacity:0; stroke-width: 2; stroke: #000000" points="1100,658 1100,670.894 1100.21,670.894 1100.21,683.787 "/>
  <line style="fill: none; fill-opacity:0; stroke-width: 2; stroke: #000000" x1="1100" y1="598" x2="1100" y2="620"/>
  <line style="fill: none; fill-opacity:0; stroke-width: 2; stroke: #000000" x1="1100" y1="538" x2="1100" y2="560"/>
  <line style="fill: none; fill-opacity:0; stroke-width: 2; stroke: #000000" x1="1100.21" y1="467.488" x2="1100" y2="500"/>
  <line style="fill: none; fill-opacity:0; stroke-width: 2; stroke: #000000" x1="1100" y1="180" x2="1100.57" y2="199.023"/>
  <line style="fill: none; fill-opacity:0; stroke-width: 2; stroke: #000000" x1="1100.57" y1="240.977" x2="1100" y2="260"/>
  <line style="fill: none; fill-opacity:0; stroke-width: 2; stroke: #000000" x1="1100" y1="298" x2="1100" y2="320"/>
  <line style="fill: none; fill-opacity:0; stroke-width: 2; stroke: #000000" x1="1100" y1="358" x2="1100.21" y2="380"/>
  <polyline style="fill: none; fill-opacity:0; stroke-width: 2; stroke: #000000" points="1100,918 1100,941 680,941 680,369 1100.11,369 "/>
  <g>
    <path style="fill: #ffffff" d="M 1060 1000 L 1140,1000 C 1151.05,1000 1160,1008.95 1160,1020 C 1160,1031.05 1151.05,1040 1140,1040 L 1060,1040 C 1048.95,1040 1040,1031.05 1040,1020 C 1040,1008.95 1048.95,1000 1060,1000z"/>
    <path style="fill: none; fill-opacity:0; stroke-width: 2; stroke: #000000" d="M 1060 1000 L 1140,1000 C 1151.05,1000 1160,1008.95 1160,1020 C 1160,1031.05 1151.05,1040 1140,1040 L 1060,1040 C 1048.95,1040 1040,1031.05 1040,1020 C 1040,1008.95 1048.95,1000 1060,1000"/>
    <text font-size="12.7998" style="fill: #000000;text-anchor:middle;font-family:sans-serif;font-style:normal;font-weight:normal" x="1100" y="1024">
      <tspan x="1100" y="1024">Выход</tspan>
    </text>
  </g>
  <polyline style="fill: none; fill-opacity:0; stroke-width: 2; stroke: #000000" points="1187.7,423.744 1187.7,420 1480,420 1480,980 1100,980 1100,1000 "/>
</svg>
