<?xml version="1.0" encoding="UTF-8" standalone="no"?>
<!DOCTYPE svg PUBLIC "-//W3C//DTD SVG 1.0//EN" "http://www.w3.org/TR/2001/PR-SVG-20010719/DTD/svg10.dtd">
<svg width="50cm" height="97cm" viewBox="798 19 982 1922" xmlns="http://www.w3.org/2000/svg" xmlns:xlink="http://www.w3.org/1999/xlink">
  <g>
    <path style="fill: #ffffff" d="M 1060 20 L 1140,20 C 1151.05,20 1160,28.9543 1160,40 C 1160,51.0457 1151.05,60 1140,60 L 1060,60 C 1048.95,60 1040,51.0457 1040,40 C 1040,28.9543 1048.95,20 1060,20z"/>
    <path style="fill: none; fill-opacity:0; stroke-width: 2; stroke: #000000" d="M 1060 20 L 1140,20 C 1151.05,20 1160,28.9543 1160,40 C 1160,51.0457 1151.05,60 1140,60 L 1060,60 C 1048.95,60 1040,51.0457 1040,40 C 1040,28.9543 1048.95,20 1060,20"/>
    <text font-size="12.7998" style="fill: #000000;text-anchor:middle;font-family:sans-serif;font-style:normal;font-weight:normal" x="1100" y="44">
      <tspan x="1100" y="44">Начало</tspan>
    </text>
  </g>
  <g>
    <polygon style="fill: #ffffff" points="919.654,160 1300,160 1280.35,214 900,214 "/>
    <polygon style="fill: none; fill-opacity:0; stroke-width: 2; stroke: #000000" points="919.654,160 1300,160 1280.35,214 900,214 "/>
    <text font-size="12.7998" style="fill: #000000;text-anchor:middle;font-family:sans-serif;font-style:normal;font-weight:normal" x="1100" y="182.9">
      <tspan x="1100" y="182.9">ind - индивид, type - тип нужного оператора,</tspan>
      <tspan x="1100" y="198.9">depth - текущая глубина рекурсии</tspan>
    </text>
  </g>
  <g>
    <rect style="fill: #ffffff" x="1025.92" y="240" width="148.15" height="38"/>
    <rect style="fill: none; fill-opacity:0; stroke-width: 2; stroke: #000000" x="1025.92" y="240" width="148.15" height="38"/>
    <text font-size="12.7998" style="fill: #000000;text-anchor:middle;font-family:sans-serif;font-style:normal;font-weight:normal" x="1100" y="262.9">
      <tspan x="1100" y="262.9">line = новая линия</tspan>
    </text>
  </g>
  <text font-size="12.7998" style="fill: #000000;text-anchor:start;font-family:sans-serif;font-style:normal;font-weight:normal" x="1100" y="259">
    <tspan x="1100" y="259"></tspan>
  </text>
  <g>
    <rect style="fill: #ffffff" x="867.5" y="300" width="465" height="38"/>
    <rect style="fill: none; fill-opacity:0; stroke-width: 2; stroke: #000000" x="867.5" y="300" width="465" height="38"/>
    <text font-size="12.7998" style="fill: #000000;text-anchor:middle;font-family:sans-serif;font-style:normal;font-weight:normal" x="1100" y="322.9">
      <tspan x="1100" y="322.9">isSimple = type != Void &amp;&amp; type != TypeLine &amp;&amp; type != TypeScope </tspan>
    </text>
  </g>
  <g>
    <polygon style="fill: #ffffff" points="1100.21,366.512 1167.4,400.107 1100.21,433.701 1033.02,400.107 "/>
    <polygon style="fill: none; fill-opacity:0; stroke-width: 2; stroke: #000000" points="1100.21,366.512 1167.4,400.107 1100.21,433.701 1033.02,400.107 "/>
    <text font-size="12.7998" style="fill: #000000;text-anchor:middle;font-family:sans-serif;font-style:normal;font-weight:normal" x="1100.21" y="404.007">
      <tspan x="1100.21" y="404.007">isSimple</tspan>
    </text>
  </g>
  <text font-size="12.7998" style="fill: #000000;text-anchor:start;font-family:sans-serif;font-style:normal;font-weight:normal" x="1000" y="380">
    <tspan x="1000" y="380">да</tspan>
  </text>
  <text font-size="12.7998" style="fill: #000000;text-anchor:start;font-family:sans-serif;font-style:normal;font-weight:normal" x="1180" y="380">
    <tspan x="1180" y="380">нет</tspan>
  </text>
  <g>
    <rect style="fill: #ffffff" x="840" y="440" width="200" height="60"/>
    <rect style="fill: none; fill-opacity:0; stroke-width: 2; stroke: #000000" x="840" y="440" width="200" height="60"/>
    <text font-size="12.7998" style="fill: #000000;text-anchor:middle;font-family:sans-serif;font-style:normal;font-weight:normal" x="940" y="465.9">
      <tspan x="940" y="465.9">op = получить случайный</tspan>
      <tspan x="940" y="481.9">оператор типа type</tspan>
    </text>
  </g>
  <g>
    <rect style="fill: #ffffff" x="1160" y="440" width="200" height="60"/>
    <rect style="fill: none; fill-opacity:0; stroke-width: 2; stroke: #000000" x="1160" y="440" width="200" height="60"/>
    <text font-size="12.7998" style="fill: #000000;text-anchor:middle;font-family:sans-serif;font-style:normal;font-weight:normal" x="1260" y="465.9">
      <tspan x="1260" y="465.9">op = получить случайный</tspan>
      <tspan x="1260" y="481.9">оператор</tspan>
    </text>
  </g>
  <g>
    <rect style="fill: #ffffff" x="1020" y="540" width="160" height="38"/>
    <rect style="fill: none; fill-opacity:0; stroke-width: 2; stroke: #000000" x="1020" y="540" width="160" height="38"/>
    <text font-size="12.7998" style="fill: #000000;text-anchor:middle;font-family:sans-serif;font-style:normal;font-weight:normal" x="1100" y="562.9">
      <tspan x="1100" y="562.9">оператор line = op</tspan>
    </text>
  </g>
  <g>
    <polygon style="fill: #ffffff" points="1100.21,596.3 1187.83,640.107 1100.21,683.913 1012.6,640.107 "/>
    <polygon style="fill: none; fill-opacity:0; stroke-width: 2; stroke: #000000" points="1100.21,596.3 1187.83,640.107 1100.21,683.913 1012.6,640.107 "/>
    <text font-size="12.7998" style="fill: #000000;text-anchor:middle;font-family:sans-serif;font-style:normal;font-weight:normal" x="1100.21" y="644.007">
      <tspan x="1100.21" y="644.007">depth &gt;= max</tspan>
    </text>
  </g>
  <text font-size="12.7998" style="fill: #000000;text-anchor:start;font-family:sans-serif;font-style:normal;font-weight:normal" x="980" y="620">
    <tspan x="980" y="620">да</tspan>
  </text>
  <text font-size="12.7998" style="fill: #000000;text-anchor:start;font-family:sans-serif;font-style:normal;font-weight:normal" x="1120" y="700">
    <tspan x="1120" y="700">нет</tspan>
  </text>
  <g>
    <rect style="fill: #ffffff" x="1073.72" y="720" width="52.55" height="38"/>
    <rect style="fill: none; fill-opacity:0; stroke-width: 2; stroke: #000000" x="1073.72" y="720" width="52.55" height="38"/>
    <text font-size="12.7998" style="fill: #000000;text-anchor:middle;font-family:sans-serif;font-style:normal;font-weight:normal" x="1100" y="742.9">
      <tspan x="1100" y="742.9">i = 0</tspan>
    </text>
  </g>
  <g>
    <polygon style="fill: #ffffff" points="1100.21,791.25 1197.93,840.107 1100.21,888.963 1002.5,840.107 "/>
    <polygon style="fill: none; fill-opacity:0; stroke-width: 2; stroke: #000000" points="1100.21,791.25 1197.93,840.107 1100.21,888.963 1002.5,840.107 "/>
    <text font-size="12.7998" style="fill: #000000;text-anchor:middle;font-family:sans-serif;font-style:normal;font-weight:normal" x="1100.21" y="844.007">
      <tspan x="1100.21" y="844.007">i = op.args.length</tspan>
    </text>
  </g>
  <text font-size="12.7998" style="fill: #000000;text-anchor:start;font-family:sans-serif;font-style:normal;font-weight:normal" x="1220" y="820">
    <tspan x="1220" y="820">да</tspan>
  </text>
  <text font-size="12.7998" style="fill: #000000;text-anchor:start;font-family:sans-serif;font-style:normal;font-weight:normal" x="1140" y="900">
    <tspan x="1140" y="900">нет</tspan>
  </text>
  <g>
    <rect style="fill: #ffffff" x="848.625" y="920" width="502.75" height="38"/>
    <rect style="fill: none; fill-opacity:0; stroke-width: 2; stroke: #000000" x="848.625" y="920" width="502.75" height="38"/>
    <text font-size="12.7998" style="fill: #000000;text-anchor:middle;font-family:sans-serif;font-style:normal;font-weight:normal" x="1100" y="942.9">
      <tspan x="1100" y="942.9">genScope = type == Void &amp;&amp; случ. число попало в newScopeGenChance</tspan>
    </text>
  </g>
  <g>
    <polygon style="fill: #ffffff" points="919.654,80 1300,80 1280.35,134 900,134 "/>
    <polygon style="fill: none; fill-opacity:0; stroke-width: 2; stroke: #000000" points="919.654,80 1300,80 1280.35,134 900,134 "/>
    <text font-size="12.7998" style="fill: #000000;text-anchor:middle;font-family:sans-serif;font-style:normal;font-weight:normal" x="1100" y="102.9">
      <tspan x="1100" y="102.9">newScopeGenChance, newOpGenChance,</tspan>
      <tspan x="1100" y="118.9">scopeMinSize, scopeMaxSize</tspan>
    </text>
  </g>
  <g>
    <polygon style="fill: #ffffff" points="1100.21,984.188 1172.05,1020.11 1100.21,1056.03 1028.38,1020.11 "/>
    <polygon style="fill: none; fill-opacity:0; stroke-width: 2; stroke: #000000" points="1100.21,984.188 1172.05,1020.11 1100.21,1056.03 1028.38,1020.11 "/>
    <text font-size="12.7998" style="fill: #000000;text-anchor:middle;font-family:sans-serif;font-style:normal;font-weight:normal" x="1100.21" y="1024.01">
      <tspan x="1100.21" y="1024.01">genScope</tspan>
    </text>
  </g>
  <text font-size="12.7998" style="fill: #000000;text-anchor:start;font-family:sans-serif;font-style:normal;font-weight:normal" x="1120" y="1080">
    <tspan x="1120" y="1080">да</tspan>
  </text>
  <text font-size="12.7998" style="fill: #000000;text-anchor:start;font-family:sans-serif;font-style:normal;font-weight:normal" x="1200" y="1000">
    <tspan x="1200" y="1000">нет</tspan>
  </text>
  <g>
    <rect style="fill: #ffffff" x="1008.2" y="1100" width="183.6" height="38"/>
    <rect style="fill: none; fill-opacity:0; stroke-width: 2; stroke: #000000" x="1008.2" y="1100" width="183.6" height="38"/>
    <text font-size="12.7998" style="fill: #000000;text-anchor:middle;font-family:sans-serif;font-style:normal;font-weight:normal" x="1100" y="1122.9">
      <tspan x="1100" y="1122.9">ascope = новая область</tspan>
    </text>
  </g>
  <g>
    <rect style="fill: #ffffff" x="927.375" y="1160" width="345.25" height="38"/>
    <rect style="fill: none; fill-opacity:0; stroke-width: 2; stroke: #000000" x="927.375" y="1160" width="345.25" height="38"/>
    <text font-size="12.7998" style="fill: #000000;text-anchor:middle;font-family:sans-serif;font-style:normal;font-weight:normal" x="1100" y="1182.9">
      <tspan x="1100" y="1182.9">размер ascope от scopeMinSize до scopeMaxSize</tspan>
    </text>
  </g>
  <g>
    <rect style="fill: #ffffff" x="1073.72" y="1220" width="52.55" height="38"/>
    <rect style="fill: none; fill-opacity:0; stroke-width: 2; stroke: #000000" x="1073.72" y="1220" width="52.55" height="38"/>
    <text font-size="12.7998" style="fill: #000000;text-anchor:middle;font-family:sans-serif;font-style:normal;font-weight:normal" x="1100" y="1242.9">
      <tspan x="1100" y="1242.9">j = 0</tspan>
    </text>
  </g>
  <g>
    <polygon style="fill: #ffffff" points="1100.21,1280 1206,1332.89 1100.21,1385.79 994.425,1332.89 "/>
    <polygon style="fill: none; fill-opacity:0; stroke-width: 2; stroke: #000000" points="1100.21,1280 1206,1332.89 1100.21,1385.79 994.425,1332.89 "/>
    <text font-size="12.7998" style="fill: #000000;text-anchor:middle;font-family:sans-serif;font-style:normal;font-weight:normal" x="1100.21" y="1336.79">
      <tspan x="1100.21" y="1336.79">j &gt;= размер ascope</tspan>
    </text>
  </g>
  <text font-size="12.7998" style="fill: #000000;text-anchor:start;font-family:sans-serif;font-style:normal;font-weight:normal" x="1220" y="1300">
    <tspan x="1220" y="1300">да</tspan>
  </text>
  <text font-size="12.7998" style="fill: #000000;text-anchor:start;font-family:sans-serif;font-style:normal;font-weight:normal" x="1060" y="1420">
    <tspan x="1060" y="1420">нет</tspan>
  </text>
  <g>
    <rect style="fill: #ffffff" x="900" y="1440" width="400" height="40"/>
    <rect style="fill: none; fill-opacity:0; stroke-width: 2; stroke: #000000" x="900" y="1440" width="400" height="40"/>
    <line style="fill: none; fill-opacity:0; stroke-width: 2; stroke: #000000" x1="940" y1="1440" x2="940" y2="1480"/>
    <line style="fill: none; fill-opacity:0; stroke-width: 2; stroke: #000000" x1="1260" y1="1440" x2="1260" y2="1480"/>
    <text font-size="12.7998" style="fill: #000000;text-anchor:middle;font-family:sans-serif;font-style:normal;font-weight:normal" x="1100" y="1456">
      <tspan x="1100" y="1456">aline = генерация типизированной линии</tspan>
      <tspan x="1100" y="1472">с типом Void и глубиной depth+1</tspan>
    </text>
  </g>
  <g>
    <rect style="fill: #ffffff" x="1009.27" y="1500" width="181.45" height="38"/>
    <rect style="fill: none; fill-opacity:0; stroke-width: 2; stroke: #000000" x="1009.27" y="1500" width="181.45" height="38"/>
    <text font-size="12.7998" style="fill: #000000;text-anchor:middle;font-family:sans-serif;font-style:normal;font-weight:normal" x="1100" y="1522.9">
      <tspan x="1100" y="1522.9">добавить aline в ascope</tspan>
    </text>
  </g>
  <g>
    <rect style="fill: #ffffff" x="1072.4" y="1560" width="55.2" height="38"/>
    <rect style="fill: none; fill-opacity:0; stroke-width: 2; stroke: #000000" x="1072.4" y="1560" width="55.2" height="38"/>
    <text font-size="12.7998" style="fill: #000000;text-anchor:middle;font-family:sans-serif;font-style:normal;font-weight:normal" x="1100" y="1582.9">
      <tspan x="1100" y="1582.9">j+=1</tspan>
    </text>
  </g>
  <polyline style="fill: none; fill-opacity:0; stroke-width: 2; stroke: #000000" points="1100,1598 1100,1619 880,1619 880,1269.03 1100.07,1269.03 "/>
  <line style="fill: none; fill-opacity:0; stroke-width: 2; stroke: #000000" x1="1100.12" y1="1386.74" x2="1100.04" y2="1439.01"/>
  <line style="fill: none; fill-opacity:0; stroke-width: 2; stroke: #000000" x1="1100" y1="1480.99" x2="1100" y2="1499"/>
  <line style="fill: none; fill-opacity:0; stroke-width: 2; stroke: #000000" x1="1100" y1="1539" x2="1100" y2="1559"/>
  <line style="fill: none; fill-opacity:0; stroke-width: 2; stroke: #000000" x1="1100.05" y1="1259" x2="1100.09" y2="1279.06"/>
  <line style="fill: none; fill-opacity:0; stroke-width: 2; stroke: #000000" x1="1100" y1="1199" x2="1100" y2="1219"/>
  <line style="fill: none; fill-opacity:0; stroke-width: 2; stroke: #000000" x1="1100" y1="1139" x2="1100" y2="1159"/>
  <line style="fill: none; fill-opacity:0; stroke-width: 2; stroke: #000000" x1="1100.13" y1="1056.9" x2="1100.04" y2="1099"/>
  <line style="fill: none; fill-opacity:0; stroke-width: 2; stroke: #000000" x1="1100.05" y1="959.009" x2="1100.12" y2="983.226"/>
  <line style="fill: none; fill-opacity:0; stroke-width: 2; stroke: #000000" x1="1100.11" y1="889.903" x2="1100.04" y2="918.997"/>
  <line style="fill: none; fill-opacity:0; stroke-width: 2; stroke: #000000" x1="1100.04" y1="759.007" x2="1100.11" y2="790.319"/>
  <line style="fill: none; fill-opacity:0; stroke-width: 2; stroke: #000000" x1="1100.12" y1="684.845" x2="1100.04" y2="718.997"/>
  <line style="fill: none; fill-opacity:0; stroke-width: 2; stroke: #000000" x1="1100.05" y1="579.009" x2="1100.1" y2="595.395"/>
  <line style="fill: none; fill-opacity:0; stroke-width: 2; stroke: #000000" x1="1100.05" y1="339.009" x2="1100.12" y2="365.563"/>
  <line style="fill: none; fill-opacity:0; stroke-width: 2; stroke: #000000" x1="1100" y1="278.995" x2="1100" y2="299.005"/>
  <line style="fill: none; fill-opacity:0; stroke-width: 2; stroke: #000000" x1="1100" y1="215.002" x2="1100" y2="239.014"/>
  <line style="fill: none; fill-opacity:0; stroke-width: 2; stroke: #000000" x1="1100" y1="134.988" x2="1100" y2="159.012"/>
  <line style="fill: none; fill-opacity:0; stroke-width: 2; stroke: #000000" x1="1100" y1="60.9702" x2="1100" y2="79.127"/>
  <polyline style="fill: none; fill-opacity:0; stroke-width: 2; stroke: #000000" points="1033.02,400.107 1033.02,400 940,400 940,440 "/>
  <polyline style="fill: none; fill-opacity:0; stroke-width: 2; stroke: #000000" points="1167.4,400.107 1167.4,400 1260,400 1260,440 "/>
  <polyline style="fill: none; fill-opacity:0; stroke-width: 2; stroke: #000000" points="940,500 940,520 1100,520 1100,540 "/>
  <polyline style="fill: none; fill-opacity:0; stroke-width: 2; stroke: #000000" points="1260,500 1260,520 1100,520 1100,538.995 "/>
  <g>
    <rect style="fill: #ffffff" x="1260" y="1660" width="160" height="38"/>
    <rect style="fill: none; fill-opacity:0; stroke-width: 2; stroke: #000000" x="1260" y="1660" width="160" height="38"/>
    <text font-size="12.7998" style="fill: #000000;text-anchor:middle;font-family:sans-serif;font-style:normal;font-weight:normal" x="1340" y="1682.9">
      <tspan x="1340" y="1682.9">line.args[i] = ascope</tspan>
    </text>
  </g>
  <polyline style="fill: none; fill-opacity:0; stroke-width: 2; stroke: #000000" points="1206,1332.89 1340,1332.89 1340,1640 1340,1640 1340,1660 "/>
  <polyline style="fill: none; fill-opacity:0; stroke-width: 2; stroke: #000000" points="1479.08,1759 840,1759 840,780 1100,780 "/>
  <g>
    <rect style="fill: #ffffff" x="1480" y="1740" width="80" height="38"/>
    <rect style="fill: none; fill-opacity:0; stroke-width: 2; stroke: #000000" x="1480" y="1740" width="80" height="38"/>
    <text font-size="12.7998" style="fill: #000000;text-anchor:middle;font-family:sans-serif;font-style:normal;font-weight:normal" x="1520" y="1762.9">
      <tspan x="1520" y="1762.9">i+=1</tspan>
    </text>
  </g>
  <polyline style="fill: none; fill-opacity:0; stroke-width: 2; stroke: #000000" points="1340,1698 1340,1720 1520,1720 1520,1739 "/>
  <g>
    <rect style="fill: #ffffff" x="1280" y="1040" width="478.1" height="38"/>
    <rect style="fill: none; fill-opacity:0; stroke-width: 2; stroke: #000000" x="1280" y="1040" width="478.1" height="38"/>
    <text font-size="12.7998" style="fill: #000000;text-anchor:middle;font-family:sans-serif;font-style:normal;font-weight:normal" x="1519.05" y="1062.9">
      <tspan x="1519.05" y="1062.9">genLine = type == Void || случ. число попало в newOpGenChance</tspan>
    </text>
  </g>
  <g>
    <polygon style="fill: #ffffff" points="1520.21,1107.29 1585.85,1140.11 1520.21,1172.93 1454.57,1140.11 "/>
    <polygon style="fill: none; fill-opacity:0; stroke-width: 2; stroke: #000000" points="1520.21,1107.29 1585.85,1140.11 1520.21,1172.93 1454.57,1140.11 "/>
    <text font-size="12.7998" style="fill: #000000;text-anchor:middle;font-family:sans-serif;font-style:normal;font-weight:normal" x="1520.21" y="1144.01">
      <tspan x="1520.21" y="1144.01">genLine</tspan>
    </text>
  </g>
  <text font-size="12.7998" style="fill: #000000;text-anchor:start;font-family:sans-serif;font-style:normal;font-weight:normal" x="1540" y="1200">
    <tspan x="1540" y="1200">да</tspan>
  </text>
  <text font-size="12.7998" style="fill: #000000;text-anchor:start;font-family:sans-serif;font-style:normal;font-weight:normal" x="1620" y="1120">
    <tspan x="1620" y="1120">нет</tspan>
  </text>
  <g>
    <rect style="fill: #ffffff" x="1320" y="1220" width="400" height="40"/>
    <rect style="fill: none; fill-opacity:0; stroke-width: 2; stroke: #000000" x="1320" y="1220" width="400" height="40"/>
    <line style="fill: none; fill-opacity:0; stroke-width: 2; stroke: #000000" x1="1360" y1="1220" x2="1360" y2="1260"/>
    <line style="fill: none; fill-opacity:0; stroke-width: 2; stroke: #000000" x1="1680" y1="1220" x2="1680" y2="1260"/>
    <text font-size="12.7998" style="fill: #000000;text-anchor:middle;font-family:sans-serif;font-style:normal;font-weight:normal" x="1520" y="1236">
      <tspan x="1520" y="1236">aline = генерация типизированной линии</tspan>
      <tspan x="1520" y="1252">с типом аргумента и глубиной depth+1</tspan>
    </text>
  </g>
  <g>
    <rect style="fill: #ffffff" x="1440" y="1660" width="160" height="38"/>
    <rect style="fill: none; fill-opacity:0; stroke-width: 2; stroke: #000000" x="1440" y="1660" width="160" height="38"/>
    <text font-size="12.7998" style="fill: #000000;text-anchor:middle;font-family:sans-serif;font-style:normal;font-weight:normal" x="1520" y="1682.9">
      <tspan x="1520" y="1682.9">line.args[i] = aline</tspan>
    </text>
  </g>
  <polyline style="fill: none; fill-opacity:0; stroke-width: 2; stroke: #000000" points="1520,1260 1520,1261 1520,1659 1520,1660 "/>
  <polyline style="fill: none; fill-opacity:0; stroke-width: 2; stroke: #000000" points="1520,1698 1520,1720 1520,1720 1520,1739 "/>
  <polyline style="fill: none; fill-opacity:0; stroke-width: 2; stroke: #000000" points="1585.85,1140.11 1585.85,1140 1740,1140 1740,1720 1520,1720 1520,1740 "/>
  <line style="fill: none; fill-opacity:0; stroke-width: 2; stroke: #000000" x1="1520.14" y1="1173.88" x2="1520.04" y2="1219"/>
  <line style="fill: none; fill-opacity:0; stroke-width: 2; stroke: #000000" x1="1519.34" y1="1079.01" x2="1519.74" y2="1106.84"/>
  <polyline style="fill: none; fill-opacity:0; stroke-width: 2; stroke: #000000" points="1172.05,1020.11 1172.05,1020 1519.05,1020 1519.05,1039 "/>
  <g>
    <polygon style="fill: #ffffff" points="1063.29,1840 1191.27,1840 1176.71,1880 1048.73,1880 "/>
    <polygon style="fill: none; fill-opacity:0; stroke-width: 2; stroke: #000000" points="1063.29,1840 1191.27,1840 1176.71,1880 1048.73,1880 "/>
    <text font-size="12.7998" style="fill: #000000;text-anchor:middle;font-family:sans-serif;font-style:normal;font-weight:normal" x="1120" y="1863.9">
      <tspan x="1120" y="1863.9">Результат: line</tspan>
    </text>
  </g>
  <g>
    <path style="fill: #ffffff" d="M 1080 1900 L 1160,1900 C 1171.05,1900 1180,1908.95 1180,1920 C 1180,1931.05 1171.05,1940 1160,1940 L 1080,1940 C 1068.95,1940 1060,1931.05 1060,1920 C 1060,1908.95 1068.95,1900 1080,1900z"/>
    <path style="fill: none; fill-opacity:0; stroke-width: 2; stroke: #000000" d="M 1080 1900 L 1160,1900 C 1171.05,1900 1180,1908.95 1180,1920 C 1180,1931.05 1171.05,1940 1160,1940 L 1080,1940 C 1068.95,1940 1060,1931.05 1060,1920 C 1060,1908.95 1068.95,1900 1080,1900"/>
    <text font-size="12.7998" style="fill: #000000;text-anchor:middle;font-family:sans-serif;font-style:normal;font-weight:normal" x="1120" y="1924">
      <tspan x="1120" y="1924">Выход</tspan>
    </text>
  </g>
  <line style="fill: none; fill-opacity:0; stroke-width: 2; stroke: #000000" x1="1120" y1="1880.99" x2="1120" y2="1899.01"/>
  <polyline style="fill: none; fill-opacity:0; stroke-width: 2; stroke: #000000" points="1197.93,840.107 1197.93,840 1780,840 1780,1800 1120,1800 1120,1839.01 "/>
  <polyline style="fill: none; fill-opacity:0; stroke-width: 2; stroke: #000000" points="1012.6,640.107 1012.6,640 800,640 800,1800 1120,1800 1120,1839.01 "/>
</svg>
