<?xml version="1.0" encoding="UTF-8" standalone="no"?>
<!DOCTYPE svg PUBLIC "-//W3C//DTD SVG 1.1//EN"
 "http://www.w3.org/Graphics/SVG/1.1/DTD/svg11.dtd">
<!-- Generated by graphviz version 2.34.0 (20140110.0949)
 -->
<!-- Title: Modules Pages: 1 -->
<svg width="1075pt" height="908pt"
 viewBox="0.00 0.00 1075.00 908.00" xmlns="http://www.w3.org/2000/svg" xmlns:xlink="http://www.w3.org/1999/xlink">
<g id="graph0" class="graph" transform="scale(1 1) rotate(0) translate(4 904)">
<title>Modules</title>
<polygon fill="white" stroke="white" points="-4,4 -4,-904 1071,-904 1071,4 -4,4"/>
<!-- main -->
<g id="node1" class="node"><title>main</title>
<polygon fill="none" stroke="black" points="632,-900 578,-900 578,-864 632,-864 632,-900"/>
<text text-anchor="middle" x="605" y="-878.3" font-family="Times,serif" font-size="14.00">main</text>
</g>
<!-- application -->
<g id="node2" class="node"><title>application</title>
<polygon fill="none" stroke="black" points="718.25,-828 641.75,-828 641.75,-792 718.25,-792 718.25,-828"/>
<text text-anchor="middle" x="680" y="-806.3" font-family="Times,serif" font-size="14.00">application</text>
</g>
<!-- main&#45;&gt;application -->
<g id="edge5" class="edge"><title>main&#45;&gt;application</title>
<path fill="none" stroke="black" d="M614,-863.965C614,-844.424 614,-816 614,-816 614,-816 631.608,-816 631.608,-816"/>
<polygon fill="black" stroke="black" points="631.608,-819.5 641.608,-816 631.607,-812.5 631.608,-819.5"/>
</g>
<!-- project -->
<g id="node3" class="node"><title>project</title>
<polygon fill="none" stroke="black" points="519,-612 465,-612 465,-576 519,-576 519,-612"/>
<text text-anchor="middle" x="492" y="-590.3" font-family="Times,serif" font-size="14.00">project</text>
</g>
<!-- main&#45;&gt;project -->
<g id="edge4" class="edge"><title>main&#45;&gt;project</title>
<path fill="none" stroke="black" d="M577.992,-876C569.346,-876 561.968,-876 561.968,-876 561.968,-876 561.968,-606 561.968,-606 561.968,-606 529.252,-606 529.252,-606"/>
<polygon fill="black" stroke="black" points="529.252,-602.5 519.252,-606 529.252,-609.5 529.252,-602.5"/>
</g>
<!-- gui.evolution -->
<g id="node4" class="node"><title>gui.evolution</title>
<polygon fill="none" stroke="black" points="550.25,-756 461.75,-756 461.75,-720 550.25,-720 550.25,-756"/>
<text text-anchor="middle" x="506" y="-734.3" font-family="Times,serif" font-size="14.00">gui.evolution</text>
</g>
<!-- main&#45;&gt;gui.evolution -->
<g id="edge1" class="edge"><title>main&#45;&gt;gui.evolution</title>
<path fill="none" stroke="black" d="M577.754,-888C544.102,-888 491.25,-888 491.25,-888 491.25,-888 491.25,-766.094 491.25,-766.094"/>
<polygon fill="black" stroke="black" points="494.75,-766.093 491.25,-756.094 487.75,-766.094 494.75,-766.093"/>
</g>
<!-- gui.results -->
<g id="node6" class="node"><title>gui.results</title>
<polygon fill="none" stroke="black" points="641.25,-756 568.75,-756 568.75,-720 641.25,-720 641.25,-756"/>
<text text-anchor="middle" x="605" y="-734.3" font-family="Times,serif" font-size="14.00">gui.results</text>
</g>
<!-- main&#45;&gt;gui.results -->
<g id="edge2" class="edge"><title>main&#45;&gt;gui.results</title>
<path fill="none" stroke="black" d="M596,-863.762C596,-863.762 596,-766.09 596,-766.09"/>
<polygon fill="black" stroke="black" points="599.5,-766.09 596,-756.09 592.5,-766.09 599.5,-766.09"/>
</g>
<!-- gui.settings -->
<g id="node7" class="node"><title>gui.settings</title>
<polygon fill="none" stroke="black" points="862.25,-756 783.75,-756 783.75,-720 862.25,-720 862.25,-756"/>
<text text-anchor="middle" x="823" y="-734.3" font-family="Times,serif" font-size="14.00">gui.settings</text>
</g>
<!-- main&#45;&gt;gui.settings -->
<g id="edge3" class="edge"><title>main&#45;&gt;gui.settings</title>
<path fill="none" stroke="black" d="M632.169,-882C690.608,-882 823,-882 823,-882 823,-882 823,-766.238 823,-766.238"/>
<polygon fill="black" stroke="black" points="826.5,-766.238 823,-756.238 819.5,-766.238 826.5,-766.238"/>
</g>
<!-- application&#45;&gt;project -->
<g id="edge9" class="edge"><title>application&#45;&gt;project</title>
<path fill="none" stroke="black" d="M645.75,-791.955C645.75,-740.042 645.75,-594 645.75,-594 645.75,-594 529.133,-594 529.133,-594"/>
<polygon fill="black" stroke="black" points="529.134,-590.5 519.133,-594 529.133,-597.5 529.134,-590.5"/>
</g>
<!-- application&#45;&gt;gui.evolution -->
<g id="edge7" class="edge"><title>application&#45;&gt;gui.evolution</title>
<path fill="none" stroke="black" d="M641.45,-804C594.32,-804 520.75,-804 520.75,-804 520.75,-804 520.75,-766.035 520.75,-766.035"/>
<polygon fill="black" stroke="black" points="524.25,-766.035 520.75,-756.035 517.25,-766.035 524.25,-766.035"/>
</g>
<!-- application&#45;&gt;gui.results -->
<g id="edge8" class="edge"><title>application&#45;&gt;gui.results</title>
<path fill="none" stroke="black" d="M643.75,-791.871C643.75,-771.428 643.75,-741 643.75,-741 643.75,-741 643.542,-741 643.542,-741"/>
<polygon fill="black" stroke="black" points="651.667,-737.501 641.667,-741 651.666,-744.501 651.667,-737.501"/>
</g>
<!-- application&#45;&gt;gui.settings -->
<g id="edge6" class="edge"><title>application&#45;&gt;gui.settings</title>
<path fill="none" stroke="black" d="M701.125,-791.733C701.125,-773.445 701.125,-748 701.125,-748 701.125,-748 773.431,-748 773.431,-748"/>
<polygon fill="black" stroke="black" points="773.431,-751.5 783.431,-748 773.431,-744.5 773.431,-751.5"/>
</g>
<!-- evol.compiler -->
<g id="node11" class="node"><title>evol.compiler</title>
<polygon fill="none" stroke="black" points="480,-540 388,-540 388,-504 480,-504 480,-540"/>
<text text-anchor="middle" x="434" y="-518.3" font-family="Times,serif" font-size="14.00">evol.compiler</text>
</g>
<!-- project&#45;&gt;evol.compiler -->
<g id="edge11" class="edge"><title>project&#45;&gt;evol.compiler</title>
<path fill="none" stroke="black" d="M470,-575.831C470,-575.831 470,-550.413 470,-550.413"/>
<polygon fill="black" stroke="black" points="473.5,-550.413 470,-540.413 466.5,-550.413 473.5,-550.413"/>
</g>
<!-- evol.progtype -->
<g id="node13" class="node"><title>evol.progtype</title>
<polygon fill="none" stroke="black" points="786,-324 694,-324 694,-288 786,-288 786,-324"/>
<text text-anchor="middle" x="740" y="-302.3" font-family="Times,serif" font-size="14.00">evol.progtype</text>
</g>
<!-- project&#45;&gt;evol.progtype -->
<g id="edge10" class="edge"><title>project&#45;&gt;evol.progtype</title>
<path fill="none" stroke="black" d="M509.5,-575.694C509.5,-513.624 509.5,-315 509.5,-315 509.5,-315 683.909,-315 683.909,-315"/>
<polygon fill="black" stroke="black" points="683.909,-318.5 693.909,-315 683.909,-311.5 683.909,-318.5"/>
</g>
<!-- gui.evolution&#45;&gt;project -->
<g id="edge15" class="edge"><title>gui.evolution&#45;&gt;project</title>
<path fill="none" stroke="black" d="M492,-719.762C492,-719.762 492,-622.09 492,-622.09"/>
<polygon fill="black" stroke="black" points="495.5,-622.09 492,-612.09 488.5,-622.09 495.5,-622.09"/>
</g>
<!-- gui.generic -->
<g id="node5" class="node"><title>gui.generic</title>
<polygon fill="none" stroke="black" points="726.25,-684 649.75,-684 649.75,-648 726.25,-648 726.25,-684"/>
<text text-anchor="middle" x="688" y="-662.3" font-family="Times,serif" font-size="14.00">gui.generic</text>
</g>
<!-- gui.evolution&#45;&gt;gui.generic -->
<g id="edge13" class="edge"><title>gui.evolution&#45;&gt;gui.generic</title>
<path fill="none" stroke="black" d="M538.15,-719.578C538.15,-710.721 538.15,-702 538.15,-702 538.15,-702 666.875,-702 666.875,-702 666.875,-702 666.875,-694.422 666.875,-694.422"/>
<polygon fill="black" stroke="black" points="670.375,-694.422 666.875,-684.422 663.375,-694.422 670.375,-694.422"/>
</g>
<!-- gui.util -->
<g id="node8" class="node"><title>gui.util</title>
<polygon fill="none" stroke="black" points="631,-684 575,-684 575,-648 631,-648 631,-684"/>
<text text-anchor="middle" x="603" y="-662.3" font-family="Times,serif" font-size="14.00">gui.util</text>
</g>
<!-- gui.evolution&#45;&gt;gui.util -->
<g id="edge12" class="edge"><title>gui.evolution&#45;&gt;gui.util</title>
<path fill="none" stroke="black" d="M544.2,-719.831C544.2,-698.502 544.2,-666 544.2,-666 544.2,-666 564.978,-666 564.978,-666"/>
<polygon fill="black" stroke="black" points="564.978,-669.5 574.978,-666 564.978,-662.5 564.978,-669.5"/>
</g>
<!-- graph.directed -->
<g id="node10" class="node"><title>graph.directed</title>
<polygon fill="none" stroke="black" points="139.25,-36 44.75,-36 44.75,-0 139.25,-0 139.25,-36"/>
<text text-anchor="middle" x="92" y="-14.3" font-family="Times,serif" font-size="14.00">graph.directed</text>
</g>
<!-- gui.evolution&#45;&gt;graph.directed -->
<g id="edge14" class="edge"><title>gui.evolution&#45;&gt;graph.directed</title>
<path fill="none" stroke="black" d="M532.1,-719.997C532.1,-633.416 532.1,-264 532.1,-264 532.1,-264 99.6875,-264 99.6875,-264 99.6875,-264 99.6875,-46.089 99.6875,-46.089"/>
<polygon fill="black" stroke="black" points="103.188,-46.0889 99.6875,-36.089 96.1876,-46.089 103.188,-46.0889"/>
</g>
<!-- gui.evolution&#45;&gt;evol.compiler -->
<g id="edge16" class="edge"><title>gui.evolution&#45;&gt;evol.compiler</title>
<path fill="none" stroke="black" d="M461.64,-732C442.7,-732 424.875,-732 424.875,-732 424.875,-732 424.875,-550.269 424.875,-550.269"/>
<polygon fill="black" stroke="black" points="428.375,-550.269 424.875,-540.269 421.375,-550.269 428.375,-550.269"/>
</g>
<!-- evol.world -->
<g id="node14" class="node"><title>evol.world</title>
<polygon fill="none" stroke="black" points="221.25,-396 146.75,-396 146.75,-360 221.25,-360 221.25,-396"/>
<text text-anchor="middle" x="184" y="-374.3" font-family="Times,serif" font-size="14.00">evol.world</text>
</g>
<!-- gui.evolution&#45;&gt;evol.world -->
<g id="edge17" class="edge"><title>gui.evolution&#45;&gt;evol.world</title>
<path fill="none" stroke="black" d="M461.453,-744C378.444,-744 208.442,-744 208.442,-744 208.442,-744 208.442,-406.15 208.442,-406.15"/>
<polygon fill="black" stroke="black" points="211.942,-406.15 208.442,-396.15 204.942,-406.15 211.942,-406.15"/>
</g>
<!-- gui.generic&#45;&gt;application -->
<g id="edge19" class="edge"><title>gui.generic&#45;&gt;application</title>
<path fill="none" stroke="black" d="M684,-684.238C684,-684.238 684,-781.91 684,-781.91"/>
<polygon fill="black" stroke="black" points="680.5,-781.91 684,-791.91 687.5,-781.91 680.5,-781.91"/>
</g>
<!-- gui.generic&#45;&gt;project -->
<g id="edge18" class="edge"><title>gui.generic&#45;&gt;project</title>
<path fill="none" stroke="black" d="M661.586,-647.909C661.586,-624.867 661.586,-588 661.586,-588 661.586,-588 529.247,-588 529.247,-588"/>
<polygon fill="black" stroke="black" points="529.247,-584.5 519.247,-588 529.247,-591.5 529.247,-584.5"/>
</g>
<!-- gui.results&#45;&gt;project -->
<g id="edge22" class="edge"><title>gui.results&#45;&gt;project</title>
<path fill="none" stroke="black" d="M633.562,-719.959C633.562,-682.552 633.562,-600 633.562,-600 633.562,-600 529.295,-600 529.295,-600"/>
<polygon fill="black" stroke="black" points="529.295,-596.5 519.295,-600 529.295,-603.5 529.295,-596.5"/>
</g>
<!-- gui.results&#45;&gt;gui.generic -->
<g id="edge21" class="edge"><title>gui.results&#45;&gt;gui.generic</title>
<path fill="none" stroke="black" d="M638.688,-719.909C638.688,-696.867 638.688,-660 638.688,-660 638.688,-660 639.782,-660 639.782,-660"/>
<polygon fill="black" stroke="black" points="639.632,-663.5 649.632,-660 639.632,-656.5 639.632,-663.5"/>
</g>
<!-- gui.results&#45;&gt;gui.util -->
<g id="edge20" class="edge"><title>gui.results&#45;&gt;gui.util</title>
<path fill="none" stroke="black" d="M603,-719.831C603,-719.831 603,-694.413 603,-694.413"/>
<polygon fill="black" stroke="black" points="606.5,-694.413 603,-684.413 599.5,-694.413 606.5,-694.413"/>
</g>
<!-- devol.individ -->
<g id="node18" class="node"><title>devol.individ</title>
<ellipse fill="none" stroke="black" cx="616" cy="-378" rx="57.2688" ry="18"/>
<text text-anchor="middle" x="616" y="-374.3" font-family="Times,serif" font-size="14.00">devol.individ</text>
</g>
<!-- gui.results&#45;&gt;devol.individ -->
<g id="edge23" class="edge"><title>gui.results&#45;&gt;devol.individ</title>
<path fill="none" stroke="black" d="M636.125,-719.653C636.125,-719.653 636.125,-405.042 636.125,-405.042"/>
<polygon fill="black" stroke="black" points="639.625,-405.042 636.125,-395.042 632.625,-405.042 639.625,-405.042"/>
</g>
<!-- gui.settings&#45;&gt;project -->
<g id="edge29" class="edge"><title>gui.settings&#45;&gt;project</title>
<path fill="none" stroke="black" d="M794.678,-719.8C794.678,-678.648 794.678,-582 794.678,-582 794.678,-582 529.127,-582 529.127,-582"/>
<polygon fill="black" stroke="black" points="529.127,-578.5 519.127,-582 529.127,-585.5 529.127,-578.5"/>
</g>
<!-- gui.settings&#45;&gt;gui.generic -->
<g id="edge25" class="edge"><title>gui.settings&#45;&gt;gui.generic</title>
<path fill="none" stroke="black" d="M783.47,-727C755.244,-727 722.25,-727 722.25,-727 722.25,-727 722.25,-694.302 722.25,-694.302"/>
<polygon fill="black" stroke="black" points="725.75,-694.302 722.25,-684.302 718.75,-694.302 725.75,-694.302"/>
</g>
<!-- gui.settings&#45;&gt;gui.util -->
<g id="edge24" class="edge"><title>gui.settings&#45;&gt;gui.util</title>
<path fill="none" stroke="black" d="M783.67,-734C732.001,-734 647.75,-734 647.75,-734 647.75,-734 647.75,-672 647.75,-672 647.75,-672 641.087,-672 641.087,-672"/>
<polygon fill="black" stroke="black" points="641.087,-668.5 631.087,-672 641.087,-675.5 641.087,-668.5"/>
</g>
<!-- gui.settings&#45;&gt;evol.progtype -->
<g id="edge26" class="edge"><title>gui.settings&#45;&gt;evol.progtype</title>
<path fill="none" stroke="black" d="M801.859,-719.867C801.859,-639.094 801.859,-316 801.859,-316 801.859,-316 796.249,-316 796.249,-316"/>
<polygon fill="black" stroke="black" points="796.25,-312.5 786.249,-316 796.249,-319.5 796.25,-312.5"/>
</g>
<!-- devol.operator -->
<g id="node19" class="node"><title>devol.operator</title>
<ellipse fill="none" stroke="black" cx="1005" cy="-162" rx="61.6163" ry="18"/>
<text text-anchor="middle" x="1005" y="-158.3" font-family="Times,serif" font-size="14.00">devol.operator</text>
</g>
<!-- gui.settings&#45;&gt;devol.operator -->
<g id="edge27" class="edge"><title>gui.settings&#45;&gt;devol.operator</title>
<path fill="none" stroke="black" d="M839.236,-719.81C839.236,-621.901 839.236,-162 839.236,-162 839.236,-162 933.276,-162 933.276,-162"/>
<polygon fill="black" stroke="black" points="933.276,-165.5 943.276,-162 933.276,-158.5 933.276,-165.5"/>
</g>
<!-- devol.operatormng -->
<g id="node20" class="node"><title>devol.operatormng</title>
<ellipse fill="none" stroke="black" cx="960" cy="-234" rx="77.4897" ry="18"/>
<text text-anchor="middle" x="960" y="-230.3" font-family="Times,serif" font-size="14.00">devol.operatormng</text>
</g>
<!-- gui.settings&#45;&gt;devol.operatormng -->
<g id="edge28" class="edge"><title>gui.settings&#45;&gt;devol.operatormng</title>
<path fill="none" stroke="black" d="M850.743,-719.765C850.743,-629.408 850.743,-234 850.743,-234 850.743,-234 872.345,-234 872.345,-234"/>
<polygon fill="black" stroke="black" points="872.345,-237.5 882.345,-234 872.345,-230.5 872.345,-237.5"/>
</g>
<!-- graph.connectivity -->
<g id="node9" class="node"><title>graph.connectivity</title>
<polygon fill="none" stroke="black" points="118,-324 0,-324 0,-288 118,-288 118,-324"/>
<text text-anchor="middle" x="59" y="-302.3" font-family="Times,serif" font-size="14.00">graph.connectivity</text>
</g>
<!-- graph.connectivity&#45;&gt;graph.directed -->
<g id="edge30" class="edge"><title>graph.connectivity&#45;&gt;graph.directed</title>
<path fill="none" stroke="black" d="M63.0625,-287.984C63.0625,-287.984 63.0625,-46.0089 63.0625,-46.0089"/>
<polygon fill="black" stroke="black" points="66.5626,-46.0088 63.0625,-36.0089 59.5626,-46.0089 66.5626,-46.0088"/>
</g>
<!-- evol.compiler&#45;&gt;project -->
<g id="edge36" class="edge"><title>evol.compiler&#45;&gt;project</title>
<path fill="none" stroke="black" d="M475,-540.169C475,-540.169 475,-565.587 475,-565.587"/>
<polygon fill="black" stroke="black" points="471.5,-565.587 475,-575.587 478.5,-565.587 471.5,-565.587"/>
</g>
<!-- evol.individ -->
<g id="node12" class="node"><title>evol.individ</title>
<polygon fill="none" stroke="black" points="500,-468 418,-468 418,-432 500,-432 500,-468"/>
<text text-anchor="middle" x="459" y="-446.3" font-family="Times,serif" font-size="14.00">evol.individ</text>
</g>
<!-- evol.compiler&#45;&gt;evol.individ -->
<g id="edge33" class="edge"><title>evol.compiler&#45;&gt;evol.individ</title>
<path fill="none" stroke="black" d="M449,-503.831C449,-503.831 449,-478.413 449,-478.413"/>
<polygon fill="black" stroke="black" points="452.5,-478.413 449,-468.413 445.5,-478.413 452.5,-478.413"/>
</g>
<!-- evol.compiler&#45;&gt;evol.progtype -->
<g id="edge35" class="edge"><title>evol.compiler&#45;&gt;evol.progtype</title>
<path fill="none" stroke="black" d="M480.217,-522C558.823,-522 710.125,-522 710.125,-522 710.125,-522 710.125,-334.045 710.125,-334.045"/>
<polygon fill="black" stroke="black" points="713.625,-334.044 710.125,-324.045 706.625,-334.045 713.625,-334.044"/>
</g>
<!-- evol.compiler&#45;&gt;evol.world -->
<g id="edge34" class="edge"><title>evol.compiler&#45;&gt;evol.world</title>
<path fill="none" stroke="black" d="M387.88,-516C323.027,-516 212.711,-516 212.711,-516 212.711,-516 212.711,-406.041 212.711,-406.041"/>
<polygon fill="black" stroke="black" points="216.211,-406.041 212.711,-396.041 209.211,-406.041 216.211,-406.041"/>
</g>
<!-- devol.compiler -->
<g id="node21" class="node"><title>devol.compiler</title>
<ellipse fill="none" stroke="black" cx="140" cy="-450" rx="64.0172" ry="18"/>
<text text-anchor="middle" x="140" y="-446.3" font-family="Times,serif" font-size="14.00">devol.compiler</text>
</g>
<!-- evol.compiler&#45;&gt;devol.compiler -->
<g id="edge31" class="edge"><title>evol.compiler&#45;&gt;devol.compiler</title>
<path fill="none" stroke="black" d="M387.739,-528C304.945,-528 140,-528 140,-528 140,-528 140,-478.091 140,-478.091"/>
<polygon fill="black" stroke="black" points="143.5,-478.091 140,-468.091 136.5,-478.091 143.5,-478.091"/>
</g>
<!-- devol.population -->
<g id="node22" class="node"><title>devol.population</title>
<ellipse fill="none" stroke="black" cx="330" cy="-450" rx="70.2909" ry="18"/>
<text text-anchor="middle" x="330" y="-446.3" font-family="Times,serif" font-size="14.00">devol.population</text>
</g>
<!-- evol.compiler&#45;&gt;devol.population -->
<g id="edge32" class="edge"><title>evol.compiler&#45;&gt;devol.population</title>
<path fill="none" stroke="black" d="M394.048,-503.831C394.048,-503.831 394.048,-467.451 394.048,-467.451"/>
<polygon fill="black" stroke="black" points="397.549,-467.451 394.048,-457.451 390.549,-467.451 397.549,-467.451"/>
</g>
<!-- evol.individ&#45;&gt;evol.world -->
<g id="edge41" class="edge"><title>evol.individ&#45;&gt;evol.world</title>
<path fill="none" stroke="black" d="M429.518,-431.857C429.518,-425.539 429.518,-420 429.518,-420 429.518,-420 216.981,-420 216.981,-420 216.981,-420 216.981,-406.056 216.981,-406.056"/>
<polygon fill="black" stroke="black" points="220.481,-406.055 216.981,-396.056 213.481,-406.056 220.481,-406.055"/>
</g>
<!-- evol.types.argedge -->
<g id="node16" class="node"><title>evol.types.argedge</title>
<polygon fill="none" stroke="black" points="652.25,-108 533.75,-108 533.75,-72 652.25,-72 652.25,-108"/>
<text text-anchor="middle" x="593" y="-86.3" font-family="Times,serif" font-size="14.00">evol.types.argedge</text>
</g>
<!-- evol.individ&#45;&gt;evol.types.argedge -->
<g id="edge40" class="edge"><title>evol.individ&#45;&gt;evol.types.argedge</title>
<path fill="none" stroke="black" d="M488.024,-431.858C488.024,-373.132 488.024,-192 488.024,-192 488.024,-192 574.2,-192 574.2,-192 574.2,-192 574.2,-118.236 574.2,-118.236"/>
<polygon fill="black" stroke="black" points="577.7,-118.236 574.2,-108.236 570.7,-118.236 577.7,-118.236"/>
</g>
<!-- evol.individ&#45;&gt;devol.individ -->
<g id="edge37" class="edge"><title>evol.individ&#45;&gt;devol.individ</title>
<path fill="none" stroke="black" d="M500.121,-456C530.051,-456 565.359,-456 565.359,-456 565.359,-456 565.359,-396.645 565.359,-396.645"/>
<polygon fill="black" stroke="black" points="568.859,-396.645 565.359,-386.645 561.859,-396.645 568.859,-396.645"/>
</g>
<!-- devol.argument -->
<g id="node23" class="node"><title>devol.argument</title>
<ellipse fill="none" stroke="black" cx="274" cy="-90" rx="65.9423" ry="18"/>
<text text-anchor="middle" x="274" y="-86.3" font-family="Times,serif" font-size="14.00">devol.argument</text>
</g>
<!-- evol.individ&#45;&gt;devol.argument -->
<g id="edge38" class="edge"><title>evol.individ&#45;&gt;devol.argument</title>
<path fill="none" stroke="black" d="M441.036,-431.944C441.036,-420.561 441.036,-408 441.036,-408 441.036,-408 271.316,-408 271.316,-408 271.316,-408 271.316,-118.008 271.316,-118.008"/>
<polygon fill="black" stroke="black" points="274.816,-118.008 271.316,-108.008 267.816,-118.008 274.816,-118.008"/>
</g>
<!-- devol.std.argvoid -->
<g id="node24" class="node"><title>devol.std.argvoid</title>
<ellipse fill="none" stroke="black" cx="392" cy="-378" rx="72.2155" ry="18"/>
<text text-anchor="middle" x="392" y="-374.3" font-family="Times,serif" font-size="14.00">devol.std.argvoid</text>
</g>
<!-- evol.individ&#45;&gt;devol.std.argvoid -->
<g id="edge39" class="edge"><title>evol.individ&#45;&gt;devol.std.argvoid</title>
<path fill="none" stroke="black" d="M452.554,-431.831C452.554,-431.831 452.554,-398.154 452.554,-398.154"/>
<polygon fill="black" stroke="black" points="456.054,-398.154 452.554,-388.154 449.054,-398.154 456.054,-398.154"/>
</g>
<!-- devol.std.argpod -->
<g id="node25" class="node"><title>devol.std.argpod</title>
<ellipse fill="none" stroke="black" cx="352" cy="-162" rx="69.3156" ry="18"/>
<text text-anchor="middle" x="352" y="-158.3" font-family="Times,serif" font-size="14.00">devol.std.argpod</text>
</g>
<!-- evol.individ&#45;&gt;devol.std.argpod -->
<g id="edge42" class="edge"><title>evol.individ&#45;&gt;devol.std.argpod</title>
<path fill="none" stroke="black" d="M476.048,-431.679C476.048,-400.866 476.048,-342 476.048,-342 476.048,-342 353.709,-342 353.709,-342 353.709,-342 353.709,-190.25 353.709,-190.25"/>
<polygon fill="black" stroke="black" points="357.21,-190.25 353.709,-180.25 350.21,-190.25 357.21,-190.25"/>
</g>
<!-- evol.operators -->
<g id="node15" class="node"><title>evol.operators</title>
<polygon fill="none" stroke="black" points="614,-252 520,-252 520,-216 614,-216 614,-252"/>
<text text-anchor="middle" x="567" y="-230.3" font-family="Times,serif" font-size="14.00">evol.operators</text>
</g>
<!-- evol.progtype&#45;&gt;evol.operators -->
<g id="edge47" class="edge"><title>evol.progtype&#45;&gt;evol.operators</title>
<path fill="none" stroke="black" d="M693.882,-297C648.605,-297 586.289,-297 586.289,-297 586.289,-297 586.289,-262.222 586.289,-262.222"/>
<polygon fill="black" stroke="black" points="589.789,-262.222 586.289,-252.222 582.789,-262.222 589.789,-262.222"/>
</g>
<!-- evol.progtype&#45;&gt;devol.operatormng -->
<g id="edge45" class="edge"><title>evol.progtype&#45;&gt;devol.operatormng</title>
<path fill="none" stroke="black" d="M786.119,-309C850.63,-309 960,-309 960,-309 960,-309 960,-262.155 960,-262.155"/>
<polygon fill="black" stroke="black" points="963.5,-262.155 960,-252.155 956.5,-262.155 963.5,-262.155"/>
</g>
<!-- devol.programtype -->
<g id="node26" class="node"><title>devol.programtype</title>
<ellipse fill="none" stroke="black" cx="710" cy="-234" rx="77.4897" ry="18"/>
<text text-anchor="middle" x="710" y="-230.3" font-family="Times,serif" font-size="14.00">devol.programtype</text>
</g>
<!-- evol.progtype&#45;&gt;devol.programtype -->
<g id="edge43" class="edge"><title>evol.progtype&#45;&gt;devol.programtype</title>
<path fill="none" stroke="black" d="M740,-287.831C740,-287.831 740,-260.926 740,-260.926"/>
<polygon fill="black" stroke="black" points="743.5,-260.926 740,-250.926 736.5,-260.926 743.5,-260.926"/>
</g>
<!-- devol.typemng -->
<g id="node27" class="node"><title>devol.typemng</title>
<ellipse fill="none" stroke="black" cx="800" cy="-18" rx="63.5411" ry="18"/>
<text text-anchor="middle" x="800" y="-14.3" font-family="Times,serif" font-size="14.00">devol.typemng</text>
</g>
<!-- evol.progtype&#45;&gt;devol.typemng -->
<g id="edge44" class="edge"><title>evol.progtype&#45;&gt;devol.typemng</title>
<path fill="none" stroke="black" d="M786.177,-302C807.312,-302 827.729,-302 827.729,-302 827.729,-302 827.729,-44.4966 827.729,-44.4966"/>
<polygon fill="black" stroke="black" points="831.229,-44.4966 827.729,-34.4966 824.229,-44.4966 831.229,-44.4966"/>
</g>
<!-- devol.std.typepod -->
<g id="node28" class="node"><title>devol.std.typepod</title>
<ellipse fill="none" stroke="black" cx="743" cy="-162" rx="73.1654" ry="18"/>
<text text-anchor="middle" x="743" y="-158.3" font-family="Times,serif" font-size="14.00">devol.std.typepod</text>
</g>
<!-- evol.progtype&#45;&gt;devol.std.typepod -->
<g id="edge46" class="edge"><title>evol.progtype&#45;&gt;devol.std.typepod</title>
<path fill="none" stroke="black" d="M786.051,-295C798.715,-295 809.04,-295 809.04,-295 809.04,-295 809.04,-179.921 809.04,-179.921"/>
<polygon fill="black" stroke="black" points="812.541,-179.921 809.04,-169.921 805.541,-179.921 812.541,-179.921"/>
</g>
<!-- evol.world&#45;&gt;graph.connectivity -->
<g id="edge50" class="edge"><title>evol.world&#45;&gt;graph.connectivity</title>
<path fill="none" stroke="black" d="M146.562,-378C122.959,-378 96.9139,-378 96.9139,-378 96.9139,-378 96.9139,-334.169 96.9139,-334.169"/>
<polygon fill="black" stroke="black" points="100.414,-334.169 96.9139,-324.169 93.414,-334.169 100.414,-334.169"/>
</g>
<!-- evol.world&#45;&gt;graph.directed -->
<g id="edge49" class="edge"><title>evol.world&#45;&gt;graph.directed</title>
<path fill="none" stroke="black" d="M161.65,-359.764C161.65,-330.426 161.65,-276 161.65,-276 161.65,-276 81.375,-276 81.375,-276 81.375,-276 81.375,-46.1421 81.375,-46.1421"/>
<polygon fill="black" stroke="black" points="84.8751,-46.142 81.375,-36.1421 77.8751,-46.1421 84.8751,-46.142"/>
</g>
<!-- evol.world&#45;&gt;evol.progtype -->
<g id="edge51" class="edge"><title>evol.world&#45;&gt;evol.progtype</title>
<path fill="none" stroke="black" d="M191.45,-359.831C191.45,-338.502 191.45,-306 191.45,-306 191.45,-306 683.704,-306 683.704,-306"/>
<polygon fill="black" stroke="black" points="683.704,-309.5 693.704,-306 683.704,-302.5 683.704,-309.5"/>
</g>
<!-- devol.world -->
<g id="node29" class="node"><title>devol.world</title>
<ellipse fill="none" stroke="black" cx="173" cy="-162" rx="52.9443" ry="18"/>
<text text-anchor="middle" x="173" y="-158.3" font-family="Times,serif" font-size="14.00">devol.world</text>
</g>
<!-- evol.world&#45;&gt;devol.world -->
<g id="edge48" class="edge"><title>evol.world&#45;&gt;devol.world</title>
<path fill="none" stroke="black" d="M176.55,-359.955C176.55,-359.955 176.55,-190.145 176.55,-190.145"/>
<polygon fill="black" stroke="black" points="180.05,-190.145 176.55,-180.145 173.05,-190.145 180.05,-190.145"/>
</g>
<!-- evol.operators&#45;&gt;evol.individ -->
<g id="edge57" class="edge"><title>evol.operators&#45;&gt;evol.individ</title>
<path fill="none" stroke="black" d="M526.05,-252.269C526.05,-303.36 526.05,-444 526.05,-444 526.05,-444 510.318,-444 510.318,-444"/>
<polygon fill="black" stroke="black" points="510.319,-440.5 500.318,-444 510.318,-447.5 510.319,-440.5"/>
</g>
<!-- evol.operators&#45;&gt;evol.types.argedge -->
<g id="edge53" class="edge"><title>evol.operators&#45;&gt;evol.types.argedge</title>
<path fill="none" stroke="black" d="M594.1,-215.762C594.1,-215.762 594.1,-118.09 594.1,-118.09"/>
<polygon fill="black" stroke="black" points="597.6,-118.09 594.1,-108.09 590.6,-118.09 597.6,-118.09"/>
</g>
<!-- evol.types.typeedge -->
<g id="node17" class="node"><title>evol.types.typeedge</title>
<polygon fill="none" stroke="black" points="564.25,-180 439.75,-180 439.75,-144 564.25,-144 564.25,-180"/>
<text text-anchor="middle" x="502" y="-158.3" font-family="Times,serif" font-size="14.00">evol.types.typeedge</text>
</g>
<!-- evol.operators&#45;&gt;evol.types.typeedge -->
<g id="edge52" class="edge"><title>evol.operators&#45;&gt;evol.types.typeedge</title>
<path fill="none" stroke="black" d="M542.125,-215.831C542.125,-215.831 542.125,-190.413 542.125,-190.413"/>
<polygon fill="black" stroke="black" points="545.625,-190.413 542.125,-180.413 538.625,-190.413 545.625,-190.413"/>
</g>
<!-- evol.operators&#45;&gt;devol.operator -->
<g id="edge56" class="edge"><title>evol.operators&#45;&gt;devol.operator</title>
<path fill="none" stroke="black" d="M584.15,-215.857C584.15,-209.539 584.15,-204 584.15,-204 584.15,-204 990.562,-204 990.562,-204 990.562,-204 990.562,-189.568 990.562,-189.568"/>
<polygon fill="black" stroke="black" points="994.062,-189.568 990.562,-179.568 987.062,-189.568 994.062,-189.568"/>
</g>
<!-- evol.operators&#45;&gt;devol.std.argpod -->
<g id="edge54" class="edge"><title>evol.operators&#45;&gt;devol.std.argpod</title>
<path fill="none" stroke="black" d="M519.836,-228C466.651,-228 387.491,-228 387.491,-228 387.491,-228 387.491,-187.641 387.491,-187.641"/>
<polygon fill="black" stroke="black" points="390.991,-187.641 387.491,-177.641 383.991,-187.641 390.991,-187.641"/>
</g>
<!-- evol.operators&#45;&gt;devol.std.typepod -->
<g id="edge55" class="edge"><title>evol.operators&#45;&gt;devol.std.typepod</title>
<path fill="none" stroke="black" d="M604.05,-215.831C604.05,-194.502 604.05,-162 604.05,-162 604.05,-162 659.456,-162 659.456,-162"/>
<polygon fill="black" stroke="black" points="659.456,-165.5 669.456,-162 659.456,-158.5 659.456,-165.5"/>
</g>
<!-- evol.operators&#45;&gt;devol.world -->
<g id="edge58" class="edge"><title>evol.operators&#45;&gt;devol.world</title>
<path fill="none" stroke="black" d="M519.851,-240C422.093,-240 206.35,-240 206.35,-240 206.35,-240 206.35,-186.306 206.35,-186.306"/>
<polygon fill="black" stroke="black" points="209.85,-186.306 206.35,-176.306 202.85,-186.306 209.85,-186.306"/>
</g>
<!-- evol.types.argedge&#45;&gt;graph.directed -->
<g id="edge65" class="edge"><title>evol.types.argedge&#45;&gt;graph.directed</title>
<path fill="none" stroke="black" d="M533.386,-90C517.707,-90 505.085,-90 505.085,-90 505.085,-90 505.085,-12 505.085,-12 505.085,-12 149.386,-12 149.386,-12"/>
<polygon fill="black" stroke="black" points="149.386,-8.5001 139.386,-12 149.386,-15.5001 149.386,-8.5001"/>
</g>
<!-- evol.types.argedge&#45;&gt;devol.typemng -->
<g id="edge64" class="edge"><title>evol.types.argedge&#45;&gt;devol.typemng</title>
<path fill="none" stroke="black" d="M652.304,-90C705.897,-90 776.437,-90 776.437,-90 776.437,-90 776.437,-45.063 776.437,-45.063"/>
<polygon fill="black" stroke="black" points="779.937,-45.063 776.437,-35.063 772.937,-45.063 779.937,-45.063"/>
</g>
<!-- devol.serializable -->
<g id="node31" class="node"><title>devol.serializable</title>
<ellipse fill="none" stroke="black" cx="593" cy="-18" rx="72.192" ry="18"/>
<text text-anchor="middle" x="593" y="-14.3" font-family="Times,serif" font-size="14.00">devol.serializable</text>
</g>
<!-- evol.types.argedge&#45;&gt;devol.serializable -->
<g id="edge63" class="edge"><title>evol.types.argedge&#45;&gt;devol.serializable</title>
<path fill="none" stroke="black" d="M593,-71.8314C593,-71.8314 593,-46.4133 593,-46.4133"/>
<polygon fill="black" stroke="black" points="596.5,-46.4132 593,-36.4133 589.5,-46.4133 596.5,-46.4132"/>
</g>
<!-- evol.types.typeedge&#45;&gt;graph.directed -->
<g id="edge62" class="edge"><title>evol.types.typeedge&#45;&gt;graph.directed</title>
<path fill="none" stroke="black" d="M489.566,-143.959C489.566,-106.552 489.566,-24 489.566,-24 489.566,-24 149.561,-24 149.561,-24"/>
<polygon fill="black" stroke="black" points="149.561,-20.5001 139.561,-24 149.561,-27.5001 149.561,-20.5001"/>
</g>
<!-- evol.types.typeedge&#45;&gt;evol.types.argedge -->
<g id="edge61" class="edge"><title>evol.types.typeedge&#45;&gt;evol.types.argedge</title>
<path fill="none" stroke="black" d="M549,-143.831C549,-143.831 549,-118.413 549,-118.413"/>
<polygon fill="black" stroke="black" points="552.5,-118.413 549,-108.413 545.5,-118.413 552.5,-118.413"/>
</g>
<!-- evol.types.typeedge&#45;&gt;devol.argument -->
<g id="edge59" class="edge"><title>evol.types.typeedge&#45;&gt;devol.argument</title>
<path fill="none" stroke="black" d="M451.183,-143.578C451.183,-134.721 451.183,-126 451.183,-126 451.183,-126 311.438,-126 311.438,-126 311.438,-126 311.438,-115.059 311.438,-115.059"/>
<polygon fill="black" stroke="black" points="314.938,-115.059 311.438,-105.059 307.938,-115.059 314.938,-115.059"/>
</g>
<!-- devol.type -->
<g id="node30" class="node"><title>devol.type</title>
<ellipse fill="none" stroke="black" cx="426" cy="-90" rx="48.1437" ry="18"/>
<text text-anchor="middle" x="426" y="-86.3" font-family="Times,serif" font-size="14.00">devol.type</text>
</g>
<!-- evol.types.typeedge&#45;&gt;devol.type -->
<g id="edge60" class="edge"><title>evol.types.typeedge&#45;&gt;devol.type</title>
<path fill="none" stroke="black" d="M462.615,-143.831C462.615,-143.831 462.615,-111.839 462.615,-111.839"/>
<polygon fill="black" stroke="black" points="466.115,-111.839 462.615,-101.839 459.115,-111.839 466.115,-111.839"/>
</g>
</g>
</svg>
